<?xml version="1.0" encoding="UTF-8"?>
<svg version="1.1" viewBox="0 0 400 400" xmlns="http://www.w3.org/2000/svg">
<g fill-rule="evenodd">
<path d="m191.58 45.478c-8.796 0.669-21.335 3.247-27.656 5.687-0.805 0.311-2.124 0.812-2.93 1.114-2.534 0.947-8.733 3.753-10.163 4.601-15.947 9.449-18.192 10.484-29.947 13.809-5.378 1.521-6.452 1.781-9.89 2.389-1.914 0.339-4.634 0.84-6.044 1.113-2.684 0.52-8.213 1.224-17.766 2.26-4.404 0.478-9.434 0.625-22.435 0.653-12.224 0.027-16.873 0.153-17.184 0.464-1.188 1.188 1.541 16.583 4.566 25.762 3.4 10.316 7.416 17.095 17.663 29.82 14.44 17.931 18.967 26.055 20.309 36.447 1.243 9.628 3.187 19.336 6.272 31.319 2.292 8.903 5.929 15.727 11.77 22.083 2.728 2.967 2.789 2.725-1.902 7.459-6.076 6.131-10.945 12.881-14.844 20.58-2.898 5.724-2.021 5.462 4.834-1.444 12.082-12.172 22.615-20.621 32.16-25.798 12.656-6.864 16.684-8.005 12.947-3.667-1.341 1.557-2.159 2.085-5.253 3.384-5.055 2.125-12.978 6.336-15.327 8.147-1.236 0.953-0.491 1.753 4.428 4.754 5.934 3.62 5.961 3.7 2.198 6.692-8.467 6.731-16.62 16.611-20.954 25.392-0.745 1.511-1.508 3.034-1.693 3.383-0.446 0.839-0.431 1.745 0.028 1.745 0.201 0 0.366-0.164 0.366-0.366 0-0.201 0.289-0.661 0.641-1.021 0.353-0.36 2.106-2.497 3.896-4.75 5.085-6.398 12.376-13.187 19.961-18.589 3.723-2.651 12.113-7.508 12.969-7.508 0.265 0 0.667-0.185 0.892-0.411 0.434-0.433 4.439-2.149 5.024-2.151 0.188-1e-3 1.012-0.326 1.831-0.722s3.797-1.304 6.618-2.018c5.363-1.358 6.731-2.117 5.415-3.006-4.715-3.186-4.871-3.718-1.81-6.202 4.059-3.294 16.675-20.078 20.122-26.77 4.821-9.36 4.705-20-0.303-27.562-4.234-6.395-9.107-9.955-21.593-15.778-7.753-3.615-7.988-3.761-11.203-6.95-3.994-3.96-5.487-6.912-6.248-12.345-0.623-4.459 0.019-9.691 2.268-18.473 1.409-5.504 0.845-5.959-4.597-3.718-8.869 3.652-15.173 12.07-16.257 21.71-0.375 3.336-0.824 3.24-9.856-2.09-6.075-3.586-12.678-8.04-16.173-10.911-9.575-7.865-15.885-14.832-20.069-22.155-2.747-4.809-2.818-4.763 8.692-5.666 4.13-0.324 8.498-0.752 9.707-0.95 1.209-0.199 4.505-0.697 7.326-1.108 2.82-0.411 6.2-0.975 7.509-1.253 1.31-0.279 3.7-0.772 5.311-1.098 5.436-1.098 12.794-3.093 19.048-5.166 8.061-2.671 11.111-3.934 16.667-6.903 13.814-7.382 23.317-11.351 30.036-12.546 0.504-0.089 1.905-0.387 3.114-0.66 10.395-2.355 22.051-2.414 33.516-0.17 12.043 2.357 22.802 6.684 34.714 13.962 1.263 0.772 2.419 1.403 2.569 1.403 0.151 0 0.881 0.325 1.623 0.723 8.897 4.768 23.473 9.129 44.061 13.181 5.099 1.004 12.835 2.063 24.159 3.309 4.337 0.477 4.565 0.735 3.092 3.505-6.041 11.366-20.201 24.205-37.603 34.096-3.919 2.227-8.591 4.521-8.865 4.352-0.367-0.227-1.318-3.2-1.643-5.137-1.343-7.994-6.171-14.596-13.344-18.243-6.426-3.268-7.795-3.231-7.099 0.191 0.217 1.064 0.751 3.748 1.187 5.964s0.946 4.536 1.132 5.155c0.548 1.815 0.407 9.265-0.221 11.71-1.838 7.152-6.283 12.051-14.188 15.64-1.441 0.654-2.136 0.967-6.247 2.818-1.374 0.618-2.58 1.124-2.68 1.124-0.519 0-9.01 5.308-10.661 6.665-11.264 9.256-12.666 24.497-3.554 38.645 5.491 8.525 14.346 20.238 16.703 22.095 3.193 2.515 3.176 2.854-0.278 5.319-1.289 0.92-2.344 1.743-2.344 1.828 0 0.462 1.965 1.322 3.795 1.66 2.499 0.462 9.214 2.645 11.773 3.827 1.007 0.465 2.656 1.197 3.663 1.625 2.285 0.973 2.147 0.898 6.777 3.638 7.765 4.594 11.852 7.775 18.803 14.634 4.159 4.103 5.393 5.513 10.431 11.925 4.221 5.371 2.207-0.571-2.947-8.697-3.966-6.253-11.684-15.126-15.848-18.22-3.988-2.963-4.303-3.94-1.735-5.39 8.852-4.999 9.353-5.439 7.679-6.75-2.824-2.213-12.097-7.102-16.839-8.88-1.256-0.471-2.115-1.146-3.098-2.434-0.747-0.981-1.49-1.783-1.65-1.783s-0.291-0.329-0.291-0.732c0-1.211 1.122-0.894 6.86 1.937 14.53 7.169 30.256 19.713 43.139 34.412 4.429 5.054 2.911 0.128-3.047-9.888-2.775-4.665-6.267-9.146-10.719-13.755-4.343-4.496-4.308-4.063-0.65-8.128 6.112-6.789 9.321-12.947 12.024-23.077 0.646-2.417 1.394-5.219 1.664-6.227 0.27-1.007 0.845-3.48 1.278-5.494 0.433-2.015 0.964-4.405 1.179-5.312 0.525-2.211 1.295-6.673 1.959-11.355 1.59-11.206 6.36-19.443 21.882-37.787 5.935-7.013 13.442-17.695 13.442-19.125 0-0.109 0.476-1.235 1.057-2.504 3.47-7.567 5.799-15.722 7.749-27.128 0.992-5.799 1.014-5.764-3.587-5.764-15.573 0-34.215-0.978-42.032-2.207-10.827-1.701-11.919-1.896-20.513-3.663-2.882-0.593-12.121-3.415-15.568-4.755-1.108-0.431-2.509-0.966-3.113-1.19-1.685-0.624-7.413-3.658-10.074-5.337-12.122-7.648-17.377-10.001-31.517-14.114-1.116-0.325-3.012-0.749-4.212-0.941-9.646-1.548-12.354-1.901-17.018-2.216-6.154-0.417-11.284-0.403-17.216 0.048m-35.531 50.008c-1.511 0.293-3.324 0.645-4.029 0.783-2.203 0.431-1.898 1.504 0.827 2.906 2.863 1.473 7.099 4.852 11.51 9.181 4.363 4.282 4.559 4.339 5.854 1.693 1.095-2.236 1.494-2.552 2.806-2.223 2.717 0.682 7.591 8.332 9.965 15.641 2.591 7.981 2.591 7.981 3.641 1.441 3.497-21.788-8.822-33.643-30.574-29.422m77.106 0.48c-11.692 2.067-16.841 9.02-16.824 22.715 0.014 11.21 0.874 13.531 2.884 7.784 2.92-8.35 6.135-14.013 9.798-17.256 1.894-1.678 2.729-1.414 4.142 1.31 1.427 2.751 1.683 2.689 6.008-1.446 4.13-3.948 9.54-8.036 12.315-9.307 3.039-1.391 2.654-1.93-2.186-3.058-3.655-0.852-13.066-1.285-16.137-0.742m-123.55 59.375c0.863 0.419 1.898 0.941 2.301 1.161 0.403 0.219 4.141 2.099 8.306 4.177l7.574 3.779 3.011 3.943c7.604 9.959 17.012 15.915 29.644 18.767 2.595 0.586 3.093 0.85 3.206 1.697 0.078 0.578-4.618 9.495-8.129 15.439-1.724 2.917-4.708 3.785-7.98 2.321-0.861-0.386-2.885-1.225-4.497-1.865-1.611-0.641-3.21-1.31-3.551-1.488-3.157-1.642-13.482-4.481-13.482-3.707 0 0.388 3.382 3.581 7.43 7.013 3.606 3.059 4.65 5.144 2.575 5.144-0.316 0-2.118 0.659-4.004 1.465-4.34 1.854-4.816 1.845-7.043-0.133-4.445-3.948-7.442-8.205-9.446-13.418-0.504-1.311-1.138-2.96-1.41-3.665-0.455-1.182-1.133-3.684-2.532-9.341-0.299-1.209-0.813-4.093-1.141-6.41s-0.756-5.037-0.951-6.044c-0.195-1.008-0.512-3.562-0.704-5.678-0.192-2.115-0.647-6.027-1.012-8.693-0.611-4.471-0.595-4.916 0.187-5.197 0.044-0.016 0.786 0.314 1.648 0.733m185.83 2.626c-0.149 1.058-0.502 3.489-0.786 5.403-0.283 1.914-0.688 5.128-0.899 7.143-0.211 2.014-0.535 4.157-0.719 4.762-0.185 0.604-0.435 2.088-0.557 3.296-1.38 13.702-6.83 27.045-13.943 34.143-3.83 3.822-3.846 3.825-8.648 1.774-2.148-0.917-4.074-1.667-4.281-1.667-0.536 0-1.264-1.488-0.894-1.827 0.549-0.504 6.91-5.997 9.042-7.81 4.385-3.727 1.223-3.555-9.314 0.507-1.528 0.589-2.905 1.071-3.059 1.071-0.153 0-0.799 0.233-1.434 0.517-10.394 4.66-11.352 4.363-16.176-5.015-1.573-3.056-3.325-6.347-3.895-7.313-1.783-3.025-1.717-4.666 0.189-4.677 9.294-0.052 26.353-10.487 32.788-20.057l1.544-2.296 7.554-3.689c4.154-2.029 7.896-3.839 8.315-4.022s1.009-0.478 1.311-0.656c3.358-1.977 4.185-1.889 3.862 0.413m-142.22 11.472c4.918 1.275 9.167 4.215 6.952 4.811-2.539 0.683-8.618 0.265-10.53-0.724-6.317-3.266-3.902-6.025 3.578-4.087m103.44 0.639c0.836 0.836-2.211 3.735-5.011 4.768-3.068 1.131-9.878 0.776-9.878-0.514 0-2.315 13.089-6.054 14.889-4.254m-88.515 67.518c-2.536 0.37-7.331 1.355-8.791 1.806-10.181 3.148-18.903 7.24-26.374 12.373-3.971 2.729-4.01 3.167-1.086 11.961 3.162 9.509 9.56 20.018 14.967 24.586 4.506 3.807 9.687 8.972 13.179 13.137 12.262 14.627 25.607 21.066 42.312 20.415 15.33-0.596 26.59-6.482 37.932-19.826 3.138-3.693 8.428-8.797 12.659-12.215 2.496-2.017 8.975-9.644 8.975-10.567 0-0.118 0.308-0.653 0.684-1.187 1.686-2.395 5.117-9.786 6.403-13.796 2.94-9.157 2.97-8.329-0.405-10.904-7.578-5.784-18.944-11.173-28.843-13.678-7.558-1.911-8.366-1.941-13.371-0.493-16.848 4.874-36.708 4.449-53.572-1.146-2.043-0.678-2.74-0.747-4.669-0.466m-13.686 12.835c3.061 1.492 9.084 4.849 12.628 7.037 4.9 3.025 15.946 11.685 16.926 13.27 0.71 1.148-0.073 1.704-4.576 3.246-2.483 0.85-5.669 1.951-7.08 2.447-10.639 3.737-24.357-10.364-24.358-25.039-1e-3 -4.015 0.152-4.038 6.46-0.961m98.301 2.686c0 6.068-2.593 11.833-8.058 17.917-6.113 6.804-11.121 8.348-17.813 5.492-0.981-0.419-2.279-0.976-2.883-1.237-0.605-0.261-2.447-0.917-4.094-1.456-4.848-1.588-4.788-1.84 1.646-7.01 7.161-5.753 14.549-10.384 23.851-14.95 7.609-3.734 7.351-3.778 7.351 1.244m-48.535 34.764c1.411 0.587 4.048 1.672 5.861 2.411 10.598 4.321 11.022 4.832 6.578 7.946-6.829 4.785-16.579 5.775-27.274 2.77-3.725-1.047-8.584-4.646-8.361-6.194 0.152-1.061 0.327-1.15 9.094-4.648 2.518-1.004 5.65-2.254 6.96-2.777 2.738-1.093 3.452-1.044 7.142 0.492" fill="#650b0c"/>
<path d="m0 183.15v183.15h200 200v-183.15-183.15h-200-200v183.15m208.79-137.72c4.664 0.315 7.372 0.668 17.018 2.216 1.2 0.192 3.096 0.616 4.212 0.941 14.14 4.113 19.395 6.466 31.517 14.114 2.661 1.679 8.389 4.713 10.074 5.337 0.604 0.224 2.005 0.759 3.113 1.19 3.447 1.34 12.686 4.162 15.568 4.755 8.594 1.767 9.686 1.962 20.513 3.663 7.817 1.229 26.459 2.207 42.032 2.207 4.601 0 4.579-0.035 3.587 5.764-1.95 11.406-4.279 19.561-7.749 27.128-0.581 1.269-1.057 2.395-1.057 2.504 0 1.43-7.507 12.112-13.442 19.125-15.522 18.344-20.292 26.581-21.882 37.787-0.664 4.682-1.434 9.144-1.959 11.355-0.215 0.907-0.746 3.297-1.179 5.312-0.433 2.014-1.008 4.487-1.278 5.494-0.27 1.008-1.018 3.81-1.664 6.227-2.703 10.13-5.912 16.288-12.024 23.077-3.658 4.065-3.693 3.632 0.65 8.128 4.452 4.609 7.944 9.09 10.719 13.755 5.958 10.016 7.476 14.942 3.047 9.888-12.883-14.699-28.609-27.243-43.139-34.412-5.738-2.831-6.86-3.148-6.86-1.937 0 0.403 0.131 0.732 0.291 0.732s0.903 0.802 1.65 1.783c0.983 1.288 1.842 1.963 3.098 2.434 4.742 1.778 14.015 6.667 16.839 8.88 1.674 1.311 1.173 1.751-7.679 6.75-2.568 1.45-2.253 2.427 1.735 5.39 4.164 3.094 11.882 11.967 15.848 18.22 5.154 8.126 7.168 14.068 2.947 8.697-5.038-6.412-6.272-7.822-10.431-11.925-6.951-6.859-11.038-10.04-18.803-14.634-4.63-2.74-4.492-2.665-6.777-3.638-1.007-0.428-2.656-1.16-3.663-1.625-2.559-1.182-9.274-3.365-11.773-3.827-1.83-0.338-3.795-1.198-3.795-1.66 0-0.085 1.055-0.908 2.344-1.828 3.454-2.465 3.471-2.804 0.278-5.319-2.357-1.857-11.212-13.57-16.703-22.095-9.112-14.148-7.71-29.389 3.554-38.645 1.651-1.357 10.142-6.665 10.661-6.665 0.1 0 1.306-0.506 2.68-1.124 4.111-1.851 4.806-2.164 6.247-2.818 7.905-3.589 12.35-8.488 14.188-15.64 0.628-2.445 0.769-9.895 0.221-11.71-0.186-0.619-0.696-2.939-1.132-5.155s-0.97-4.9-1.187-5.964c-0.696-3.422 0.673-3.459 7.099-0.191 7.173 3.647 12.001 10.249 13.344 18.243 0.325 1.937 1.276 4.91 1.643 5.137 0.274 0.169 4.946-2.125 8.865-4.352 17.402-9.891 31.562-22.73 37.603-34.096 1.473-2.77 1.245-3.028-3.092-3.505-11.324-1.246-19.06-2.305-24.159-3.309-20.588-4.052-35.164-8.413-44.061-13.181-0.742-0.398-1.472-0.723-1.623-0.723-0.15 0-1.306-0.631-2.569-1.403-22.73-13.888-46.55-18.703-68.23-13.792-1.209 0.273-2.61 0.571-3.114 0.66-6.719 1.195-16.222 5.164-30.036 12.546-5.556 2.969-8.606 4.232-16.667 6.903-6.254 2.073-13.612 4.068-19.048 5.166-1.611 0.326-4.001 0.819-5.311 1.098-1.309 0.278-4.689 0.842-7.509 1.253-2.821 0.411-6.117 0.909-7.326 1.108-1.209 0.198-5.577 0.626-9.707 0.95-11.51 0.903-11.439 0.857-8.692 5.666 4.184 7.323 10.494 14.29 20.069 22.155 3.495 2.871 10.098 7.325 16.173 10.911 9.032 5.33 9.481 5.426 9.856 2.09 1.084-9.64 7.388-18.058 16.257-21.71 5.442-2.241 6.006-1.786 4.597 3.718-2.249 8.782-2.891 14.014-2.268 18.473 0.761 5.433 2.254 8.385 6.248 12.345 3.215 3.189 3.45 3.335 11.203 6.95 12.486 5.823 17.359 9.383 21.593 15.778 5.008 7.562 5.124 18.202 0.303 27.562-3.447 6.692-16.063 23.476-20.122 26.77-3.061 2.484-2.905 3.016 1.81 6.202 1.316 0.889-0.052 1.648-5.415 3.006-2.821 0.714-5.799 1.622-6.618 2.018s-1.643 0.721-1.831 0.722c-0.585 2e-3 -4.59 1.718-5.024 2.151-0.225 0.226-0.627 0.411-0.892 0.411-0.856 0-9.246 4.857-12.969 7.508-7.585 5.402-14.876 12.191-19.961 18.589-1.79 2.253-3.543 4.39-3.896 4.75-0.352 0.36-0.641 0.82-0.641 1.021 0 0.202-0.165 0.366-0.366 0.366-0.459 0-0.474-0.906-0.028-1.745 0.185-0.349 0.948-1.872 1.693-3.383 4.334-8.781 12.487-18.661 20.954-25.392 3.763-2.992 3.736-3.072-2.198-6.692-4.919-3.001-5.664-3.801-4.428-4.754 2.349-1.811 10.272-6.022 15.327-8.147 3.094-1.299 3.912-1.827 5.253-3.384 2.729-3.168 1.768-3.446-3.606-1.045-14.472 6.467-26.176 15.071-41.501 30.51-6.855 6.906-7.732 7.168-4.834 1.444 3.899-7.699 8.768-14.449 14.844-20.58 4.691-4.734 4.63-4.492 1.902-7.459-5.841-6.356-9.478-13.18-11.77-22.083-3.085-11.983-5.029-21.691-6.272-31.319-1.342-10.392-5.869-18.516-20.309-36.447-10.247-12.725-14.263-19.504-17.663-29.82-3.025-9.179-5.754-24.574-4.566-25.762 0.311-0.311 4.96-0.437 17.184-0.464 13.001-0.028 18.031-0.175 22.435-0.653 9.553-1.036 15.082-1.74 17.766-2.26 1.41-0.273 4.13-0.774 6.044-1.113 3.438-0.608 4.512-0.868 9.89-2.389 11.755-3.325 14-4.36 29.947-13.809 1.43-0.848 7.629-3.654 10.163-4.601 0.806-0.302 2.125-0.803 2.93-1.114 11.552-4.459 29.617-6.768 44.872-5.735m-36.974 50.214c12.09 3.02 17.346 13.411 14.801 29.264-1.05 6.54-1.05 6.54-3.641-1.441-2.374-7.309-7.248-14.959-9.965-15.641-1.312-0.329-1.711-0.013-2.806 2.223-1.295 2.646-1.491 2.589-5.854-1.693-4.411-4.329-8.647-7.708-11.51-9.181-2.725-1.402-3.03-2.475-0.827-2.906 0.705-0.138 2.518-0.49 4.029-0.783 4.374-0.849 12.049-0.772 15.773 0.158m77.47 1.064c4.84 1.128 5.225 1.667 2.186 3.058-2.775 1.271-8.185 5.359-12.315 9.307-4.325 4.135-4.581 4.197-6.008 1.446-1.413-2.724-2.248-2.988-4.142-1.31-3.663 3.243-6.878 8.906-9.798 17.256-2.01 5.747-2.87 3.426-2.884-7.784-0.017-13.695 5.132-20.648 16.824-22.715 3.071-0.543 12.482-0.11 16.137 0.742m-141.8 58.089c-0.261 0.109-0.171 1.721 0.278 5.008 0.365 2.666 0.82 6.578 1.012 8.693 0.192 2.116 0.509 4.67 0.704 5.678 0.195 1.007 0.623 3.727 0.951 6.044s0.842 5.201 1.141 6.41c1.399 5.657 2.077 8.159 2.532 9.341 0.272 0.705 0.906 2.354 1.41 3.665 2.004 5.213 5.001 9.47 9.446 13.418 2.227 1.978 2.703 1.987 7.043 0.133 1.886-0.806 3.688-1.465 4.004-1.465 2.075 0 1.031-2.085-2.575-5.144-4.048-3.432-7.43-6.625-7.43-7.013 0-0.774 10.325 2.065 13.482 3.707 0.341 0.178 1.94 0.847 3.551 1.488 1.612 0.64 3.636 1.479 4.497 1.865 3.272 1.464 6.256 0.596 7.98-2.321 3.511-5.944 8.207-14.861 8.129-15.439-0.113-0.847-0.611-1.111-3.206-1.697-12.632-2.852-22.04-8.808-29.644-18.767l-3.011-3.943-7.574-3.779c-4.165-2.078-7.903-3.958-8.306-4.177-1.151-0.627-3.86-1.926-3.949-1.894-0.044 0.016-0.254 0.101-0.465 0.189m185.92 1.863c-0.706 0.314-1.53 0.716-1.832 0.894s-0.892 0.473-1.311 0.656-4.161 1.993-8.315 4.022l-7.554 3.689-1.544 2.296c-6.435 9.57-23.494 20.005-32.788 20.057-1.906 0.011-1.972 1.652-0.189 4.677 0.57 0.966 2.322 4.257 3.895 7.313 4.824 9.378 5.782 9.675 16.176 5.015 0.635-0.284 1.281-0.517 1.434-0.517 0.154 0 1.531-0.482 3.059-1.071 10.537-4.062 13.699-4.234 9.314-0.507-2.132 1.813-8.493 7.306-9.042 7.81-0.37 0.339 0.358 1.827 0.894 1.827 0.207 0 2.133 0.75 4.281 1.667 4.802 2.051 4.818 2.048 8.648-1.774 7.113-7.098 12.563-20.441 13.943-34.143 0.122-1.208 0.372-2.692 0.557-3.296 0.184-0.605 0.508-2.748 0.719-4.762 0.211-2.015 0.616-5.229 0.899-7.143 1.243-8.392 1.342-7.859-1.244-6.71m-147.45 12.971c-0.733 2.309 4.118 4.833 9.351 4.866 4.931 0.03 6.032-0.23 5.402-1.276-1.736-2.881-14.029-5.872-14.753-3.59m104.77 0.337c-5.829 1.166-10.989 4.497-8.147 5.259 4.943 1.325 13.038-1.099 14.022-4.198 0.387-1.22-2.488-1.739-5.875-1.061m-77.928 68.094c16.864 5.595 36.724 6.02 53.572 1.146 5.005-1.448 5.813-1.418 13.371 0.493 9.899 2.505 21.265 7.894 28.843 13.678 3.375 2.575 3.345 1.747 0.405 10.904-1.286 4.01-4.717 11.401-6.403 13.796-0.376 0.534-0.684 1.069-0.684 1.187 0 0.923-6.479 8.55-8.975 10.567-4.231 3.418-9.521 8.522-12.659 12.215-11.342 13.344-22.602 19.23-37.932 19.826-16.705 0.651-30.05-5.788-42.312-20.415-3.492-4.165-8.673-9.33-13.179-13.137-8.418-7.112-19.715-30.899-16.382-34.494 3.069-3.31 16.184-10.288 24.43-12.997 5.001-1.643 6.048-1.93 9.207-2.52 5.911-1.104 6.104-1.11 8.698-0.249m-24.194 10.344c-1.423 0.797-0.436 9.11 1.58 13.312 5.547 11.558 14.402 17.437 22.157 14.713 1.411-0.496 4.597-1.597 7.08-2.447 4.503-1.542 5.286-2.098 4.576-3.246-0.98-1.585-12.026-10.245-16.926-13.27-5.312-3.28-14.176-8.014-17.043-9.104-0.457-0.174-1.07-0.156-1.424 0.042m96.789 3.467c-9.302 4.566-16.69 9.197-23.851 14.95-6.434 5.17-6.494 5.422-1.646 7.01 1.647 0.539 3.489 1.195 4.094 1.456 0.604 0.261 1.902 0.818 2.883 1.237 6.692 2.856 11.7 1.312 17.813-5.492 5.465-6.084 8.058-11.849 8.058-17.917 0-5.022 0.258-4.978-7.351-1.244m-48.326 35.516c-1.31 0.523-4.442 1.773-6.96 2.777-8.767 3.498-8.942 3.587-9.094 4.648-0.223 1.548 4.636 5.147 8.361 6.194 10.695 3.005 20.445 2.015 27.274-2.77 4.444-3.114 4.02-3.625-6.578-7.946-1.813-0.739-4.45-1.824-5.861-2.411-3.69-1.536-4.404-1.585-7.142-0.492" fill="#fbfbfb"/>
</g>
</svg>
