<svg xmlns="http://www.w3.org/2000/svg" viewBox="0 0 400 400" style=""><rect id="backgroundrect" width="100%" height="100%" x="0" y="0" fill="none" stroke="none"/>

<g class="currentLayer" style=""><title>Layer 1</title><g fill-rule="evenodd" id="svg_1" class="">
<path d="m191.58,44.997230753183366 c-8.796,0.6690000000000002 -21.335,3.247 -27.656,5.687 c-0.805,0.31100000000000005 -2.124,0.812 -2.93,1.114 c-2.534,0.9470000000000001 -8.733,3.753 -10.163,4.601 c-15.947,9.449 -18.192,10.484 -29.947,13.809 c-5.378,1.521 -6.452,1.7810000000000001 -9.89,2.3890000000000002 c-1.9140000000000001,0.3390000000000001 -4.634,0.8400000000000001 -6.044,1.113 c-2.684,0.52 -8.213,1.224 -17.766000000000002,2.26 c-4.404,0.47800000000000004 -9.434,0.6250000000000001 -22.435,0.6530000000000001 c-12.224,0.027000000000000007 -16.873,0.15300000000000002 -17.184,0.464 c-1.188,1.188 1.541,16.583 4.566,25.762 c3.4,10.316 7.416,17.095 17.663,29.82 c14.44,17.931 18.967,26.055 20.309,36.447 c1.243,9.628 3.187,19.336 6.272,31.319 c2.292,8.903 5.929,15.727 11.77,22.083 c2.728,2.967 2.789,2.725 -1.9020000000000001,7.459 c-6.076,6.131 -10.945,12.881 -14.844,20.58 c-2.898,5.724 -2.021,5.462 4.834,-1.444 c12.082,-12.172 22.615,-20.621 32.16,-25.798000000000002 c12.656,-6.864 16.684,-8.005 12.947,-3.6670000000000003 c-1.3410000000000002,1.557 -2.159,2.085 -5.253,3.384 c-5.055,2.125 -12.978,6.336 -15.327,8.147 c-1.236,0.9530000000000001 -0.49100000000000005,1.7530000000000001 4.428,4.7540000000000004 c5.934,3.62 5.961,3.7 2.198,6.692 c-8.467,6.731 -16.62,16.611 -20.954,25.392 c-0.7450000000000001,1.5110000000000001 -1.508,3.034 -1.693,3.383 c-0.44600000000000006,0.8390000000000001 -0.43100000000000005,1.745 0.028000000000000004,1.745 c0.201,0 0.36600000000000005,-0.16400000000000003 0.36600000000000005,-0.36600000000000005 c0,-0.201 0.28900000000000003,-0.6610000000000001 0.6410000000000001,-1.021 c0.35300000000000004,-0.36000000000000004 2.106,-2.497 3.896,-4.75 c5.085,-6.398 12.376,-13.187 19.961,-18.589 c3.723,-2.6510000000000002 12.113,-7.508 12.969,-7.508 c0.265,0 0.6670000000000001,-0.18500000000000003 0.8920000000000001,-0.41100000000000003 c0.43400000000000005,-0.43300000000000005 4.439,-2.149 5.024,-2.151 c0.18800000000000003,-0.001 1.012,-0.32600000000000007 1.831,-0.7220000000000001 s3.797,-1.304 6.618,-2.018 c5.363,-1.358 6.731,-2.117 5.415,-3.006 c-4.715,-3.186 -4.871,-3.718 -1.81,-6.202 c4.059,-3.294 16.675,-20.078 20.122,-26.77 c4.821,-9.36 4.705,-20 -0.30300000000000005,-27.562 c-4.234,-6.3950000000000005 -9.107,-9.955 -21.593,-15.778 c-7.753,-3.615 -7.9879999999999995,-3.761 -11.203,-6.95 c-3.9939999999999998,-3.96 -5.487,-6.912 -6.248,-12.345 c-0.6230000000000001,-4.459 0.019000000000000003,-9.691 2.268,-18.473 c1.409,-5.504 0.8450000000000001,-5.959 -4.597,-3.718 c-8.869,3.652 -15.173,12.07 -16.257,21.71 c-0.37500000000000006,3.3360000000000003 -0.8240000000000001,3.24 -9.856,-2.09 c-6.075,-3.5860000000000003 -12.678,-8.04 -16.173,-10.911 c-9.575,-7.865 -15.885,-14.832 -20.069,-22.155 c-2.747,-4.809 -2.818,-4.763 8.692,-5.666 c4.13,-0.32400000000000007 8.498,-0.7520000000000001 9.707,-0.9500000000000001 c1.209,-0.19900000000000004 4.505,-0.6970000000000002 7.3260000000000005,-1.108 c2.8200000000000003,-0.41100000000000003 6.2,-0.975 7.509,-1.2530000000000001 c1.31,-0.279 3.7,-0.772 5.311,-1.098 c5.436,-1.098 12.794,-3.093 19.048,-5.166 c8.061,-2.6710000000000003 11.111,-3.934 16.667,-6.9030000000000005 c13.814,-7.382 23.317,-11.351 30.036,-12.546 c0.504,-0.08900000000000002 1.905,-0.38700000000000007 3.114,-0.6600000000000001 c10.395,-2.355 22.051,-2.414 33.516,-0.17 c12.043,2.357 22.802,6.684 34.714,13.962 c1.263,0.772 2.419,1.403 2.569,1.403 c0.15100000000000002,0 0.8810000000000001,0.32500000000000007 1.6230000000000002,0.7230000000000001 c8.897,4.768 23.473,9.129 44.061,13.181 c5.099,1.004 12.835,2.063 24.159,3.309 c4.337,0.47700000000000004 4.565,0.7350000000000001 3.092,3.505 c-6.041,11.366 -20.201,24.205 -37.603,34.096 c-3.919,2.227 -8.591,4.521 -8.865,4.352 c-0.36700000000000005,-0.22700000000000004 -1.318,-3.2 -1.6430000000000002,-5.1370000000000005 c-1.343,-7.994 -6.171,-14.596 -13.344,-18.243 c-6.426,-3.268 -7.795,-3.231 -7.099,0.19100000000000003 c0.21700000000000003,1.064 0.7510000000000001,3.748 1.187,5.964 s0.9460000000000001,4.536 1.1320000000000001,5.155 c0.548,1.815 0.40700000000000003,9.265 -0.22100000000000003,11.71 c-1.838,7.152 -6.283,12.051 -14.188,15.64 c-1.441,0.6540000000000001 -2.136,0.9670000000000001 -6.247,2.818 c-1.374,0.6180000000000001 -2.58,1.124 -2.68,1.124 c-0.519,0 -9.01,5.308 -10.661,6.665 c-11.264,9.256 -12.666,24.497 -3.5540000000000003,38.645 c5.491,8.525 14.346,20.238 16.703,22.095 c3.193,2.515 3.176,2.854 -0.278,5.319 c-1.2890000000000001,0.92 -2.3440000000000003,1.743 -2.3440000000000003,1.828 c0,0.462 1.965,1.322 3.795,1.6600000000000001 c2.499,0.462 9.214,2.645 11.773,3.827 c1.007,0.465 2.656,1.197 3.6630000000000003,1.625 c2.285,0.973 2.1470000000000002,0.8980000000000001 6.777,3.638 c7.765000000000001,4.594 11.852,7.775 18.803,14.634 c4.159,4.103 5.393,5.513 10.431000000000001,11.925 c4.221,5.371 2.207,-0.5710000000000001 -2.947,-8.697000000000001 c-3.966,-6.253 -11.684000000000001,-15.126 -15.848,-18.22 c-3.988,-2.963 -4.303,-3.94 -1.735,-5.39 c8.852,-4.999 9.353,-5.439 7.679,-6.75 c-2.824,-2.213 -12.097,-7.102 -16.839,-8.88 c-1.256,-0.47100000000000003 -2.115,-1.146 -3.098,-2.434 c-0.7470000000000001,-0.981 -1.49,-1.783 -1.6500000000000001,-1.783 s-0.29100000000000004,-0.32900000000000007 -0.29100000000000004,-0.7320000000000001 c0,-1.211 1.122,-0.8940000000000001 6.86,1.937 c14.53,7.1690000000000005 30.256,19.713 43.139,34.412 c4.429,5.054 2.911,0.128 -3.047,-9.888 c-2.775,-4.665 -6.267,-9.146 -10.719,-13.755 c-4.343,-4.496 -4.308,-4.063 -0.6500000000000001,-8.128 c6.112,-6.789 9.321,-12.947 12.024,-23.077 c0.6460000000000001,-2.417 1.3940000000000001,-5.219 1.6640000000000001,-6.227 c0.27,-1.007 0.8450000000000001,-3.48 1.278,-5.494 c0.43300000000000005,-2.015 0.9640000000000001,-4.405 1.179,-5.312 c0.525,-2.211 1.295,-6.673 1.959,-11.355 c1.59,-11.206 6.36,-19.443 21.882,-37.787 c5.9350000000000005,-7.013 13.442,-17.695 13.442,-19.125 c0,-0.10900000000000001 0.47600000000000003,-1.235 1.057,-2.504 c3.47,-7.567 5.799,-15.722 7.7490000000000006,-27.128 c0.992,-5.799 1.014,-5.764 -3.587,-5.764 c-15.573,0 -34.215,-0.978 -42.032,-2.207 c-10.827,-1.701 -11.919,-1.8960000000000001 -20.513,-3.6630000000000003 c-2.882,-0.5930000000000001 -12.121,-3.415 -15.568,-4.755 c-1.108,-0.43100000000000005 -2.509,-0.9660000000000001 -3.113,-1.19 c-1.685,-0.6240000000000001 -7.413,-3.6580000000000004 -10.074,-5.337 c-12.122,-7.648 -17.377,-10.001 -31.517,-14.114 c-1.116,-0.32500000000000007 -3.012,-0.7490000000000001 -4.212,-0.9410000000000001 c-9.646,-1.548 -12.354,-1.901 -17.018,-2.216 c-6.154,-0.41700000000000004 -11.284,-0.403 -17.216,0.04800000000000001 m-35.531,50.008 c-1.5110000000000001,0.29300000000000004 -3.324,0.6450000000000001 -4.029,0.783 c-2.203,0.43100000000000005 -1.8980000000000001,1.504 0.8270000000000001,2.906 c2.863,1.473 7.099,4.852 11.51,9.181 c4.363,4.282 4.559,4.339 5.854,1.693 c1.095,-2.236 1.494,-2.552 2.806,-2.223 c2.717,0.6820000000000002 7.591,8.332 9.965,15.641 c2.591,7.981 2.591,7.981 3.641,1.441 c3.497,-21.788 -8.822,-33.643 -30.574,-29.422 m77.106,0.48000000000000004 c-11.692,2.067 -16.841,9.02 -16.824,22.715 c0.014000000000000002,11.21 0.8740000000000001,13.531 2.8840000000000003,7.784 c2.92,-8.35 6.135,-14.013 9.798,-17.256 c1.8940000000000001,-1.6780000000000002 2.729,-1.4140000000000001 4.142,1.31 c1.427,2.7510000000000003 1.6830000000000003,2.689 6.008,-1.4460000000000002 c4.13,-3.948 9.54,-8.036 12.315,-9.307 c3.039,-1.391 2.654,-1.9300000000000002 -2.186,-3.058 c-3.6550000000000002,-0.8520000000000001 -13.066,-1.2850000000000001 -16.137,-0.7420000000000001 m-123.55,59.375 c0.8630000000000001,0.41900000000000004 1.8980000000000001,0.9410000000000001 2.301,1.161 c0.403,0.21900000000000003 4.141,2.099 8.306000000000001,4.177 l7.574,3.779 l3.011,3.943 c7.604,9.959 17.012,15.915 29.644,18.767 c2.595,0.5860000000000001 3.093,0.8500000000000001 3.206,1.697 c0.07800000000000001,0.5780000000000001 -4.618,9.495 -8.129,15.439 c-1.7240000000000002,2.917 -4.708,3.785 -7.98,2.321 c-0.8610000000000001,-0.38600000000000007 -2.8850000000000002,-1.225 -4.497,-1.8650000000000002 c-1.6110000000000002,-0.6410000000000001 -3.21,-1.31 -3.551,-1.488 c-3.157,-1.6420000000000001 -13.482,-4.481 -13.482,-3.707 c0,0.38800000000000007 3.382,3.581 7.43,7.013 c3.606,3.059 4.65,5.144 2.575,5.144 c-0.31600000000000006,0 -2.118,0.6590000000000001 -4.004,1.465 c-4.34,1.854 -4.816,1.8450000000000002 -7.043,-0.133 c-4.445,-3.948 -7.442,-8.205 -9.446,-13.418 c-0.504,-1.311 -1.138,-2.96 -1.4100000000000001,-3.665 c-0.455,-1.182 -1.133,-3.684 -2.532,-9.341 c-0.29900000000000004,-1.209 -0.8130000000000001,-4.093 -1.141,-6.41 s-0.7560000000000001,-5.037 -0.9510000000000001,-6.044 c-0.19500000000000003,-1.008 -0.512,-3.5620000000000003 -0.7040000000000001,-5.678 c-0.19200000000000003,-2.115 -0.6470000000000001,-6.027 -1.012,-8.693 c-0.6110000000000001,-4.471 -0.5950000000000001,-4.916 0.18700000000000003,-5.197 c0.04400000000000001,-0.016000000000000004 0.786,0.31400000000000006 1.6480000000000001,0.7330000000000001 m185.83,2.6260000000000003 c-0.14900000000000002,1.058 -0.502,3.489 -0.786,5.4030000000000005 c-0.28300000000000003,1.9140000000000001 -0.6880000000000002,5.128 -0.8990000000000001,7.143 c-0.21100000000000002,2.014 -0.535,4.157 -0.7190000000000001,4.7620000000000005 c-0.18500000000000003,0.6040000000000001 -0.43500000000000005,2.088 -0.557,3.2960000000000003 c-1.3800000000000001,13.702 -6.83,27.045 -13.943,34.143 c-3.83,3.822 -3.846,3.825 -8.648,1.774 c-2.148,-0.917 -4.074,-1.6670000000000003 -4.281,-1.6670000000000003 c-0.536,0 -1.264,-1.488 -0.8940000000000001,-1.827 c0.549,-0.504 6.91,-5.997 9.042,-7.8100000000000005 c4.385,-3.7270000000000003 1.223,-3.555 -9.314,0.507 c-1.528,0.5890000000000001 -2.9050000000000002,1.071 -3.059,1.071 c-0.15300000000000002,0 -0.799,0.233 -1.4340000000000002,0.517 c-10.394,4.66 -11.352,4.363 -16.176,-5.015 c-1.573,-3.056 -3.325,-6.347 -3.895,-7.313 c-1.783,-3.025 -1.717,-4.666 0.18900000000000003,-4.6770000000000005 c9.294,-0.05200000000000001 26.353,-10.487 32.788,-20.057 l1.544,-2.2960000000000003 l7.554,-3.689 c4.154,-2.029 7.896,-3.839 8.315,-4.022 s1.009,-0.47800000000000004 1.311,-0.6560000000000001 c3.358,-1.9769999999999999 4.185,-1.8890000000000002 3.862,0.41300000000000003 m-142.22,11.472 c4.918,1.275 9.167,4.215 6.952,4.811 c-2.539,0.6830000000000002 -8.618,0.265 -10.53,-0.7240000000000001 c-6.317,-3.266 -3.902,-6.025 3.5780000000000003,-4.087 m103.44,0.6390000000000001 c0.8360000000000001,0.8360000000000001 -2.211,3.7350000000000003 -5.011,4.768 c-3.068,1.131 -9.878,0.776 -9.878,-0.514 c0,-2.315 13.089,-6.054 14.889,-4.254 m-88.515,67.518 c-2.536,0.37000000000000005 -7.331,1.355 -8.791,1.806 c-10.181,3.148 -18.903,7.24 -26.374,12.373 c-3.971,2.729 -4.01,3.167 -1.086,11.961 c3.162,9.509 9.56,20.018 14.967,24.586 c4.506,3.807 9.687,8.972 13.179,13.137 c12.262,14.627 25.607,21.066 42.312,20.415 c15.33,-0.5960000000000001 26.59,-6.482 37.932,-19.826 c3.138,-3.693 8.428,-8.797 12.659,-12.215 c2.496,-2.017 8.975,-9.644 8.975,-10.567 c0,-0.11800000000000002 0.30800000000000005,-0.6530000000000001 0.6840000000000002,-1.187 c1.6860000000000002,-2.395 5.117,-9.786 6.4030000000000005,-13.796 c2.94,-9.157 2.9699999999999998,-8.329 -0.405,-10.904 c-7.578,-5.784 -18.944,-11.173 -28.843,-13.678 c-7.558,-1.911 -8.366,-1.941 -13.371,-0.49300000000000005 c-16.848,4.8740000000000006 -36.708,4.449 -53.572,-1.146 c-2.043,-0.6780000000000002 -2.74,-0.7470000000000001 -4.6690000000000005,-0.466 m-13.686,12.835 c3.061,1.492 9.084,4.849 12.628,7.037 c4.9,3.025 15.946,11.685 16.926,13.27 c0.7100000000000001,1.1480000000000001 -0.07300000000000001,1.7040000000000002 -4.5760000000000005,3.246 c-2.483,0.8500000000000001 -5.6690000000000005,1.951 -7.08,2.447 c-10.639,3.737 -24.357,-10.364 -24.358,-25.039 c-0.001,-4.015 0.15200000000000002,-4.038 6.46,-0.9610000000000001 m98.301,2.686 c0,6.068 -2.593,11.833 -8.058,17.917 c-6.113,6.804 -11.121,8.348 -17.813,5.492 c-0.981,-0.41900000000000004 -2.279,-0.976 -2.883,-1.237 c-0.6050000000000001,-0.261 -2.447,-0.917 -4.094,-1.456 c-4.848,-1.588 -4.788,-1.84 1.6460000000000001,-7.01 c7.161,-5.753 14.549,-10.384 23.851,-14.95 c7.609,-3.734 7.351,-3.778 7.351,1.244 m-48.535,34.764 c1.411,0.5870000000000001 4.048,1.6720000000000002 5.861,2.411 c10.598,4.321 11.022,4.832 6.578,7.946 c-6.829,4.785 -16.579,5.775 -27.274,2.77 c-3.725,-1.047 -8.584,-4.646 -8.361,-6.194 c0.15200000000000002,-1.061 0.32700000000000007,-1.15 9.094,-4.648 c2.518,-1.004 5.65,-2.254 6.96,-2.777 c2.738,-1.093 3.452,-1.044 7.142,0.49200000000000005 " fill="#650b0c" id="svg_2"/>
<path d="m0,182.66923075318337 v183.15 h200 h200 v-183.15 v-183.15 h-200 h-200 v183.15 m208.79,-137.72 c4.664,0.31500000000000006 7.372,0.6680000000000001 17.018,2.216 c1.2,0.19200000000000003 3.096,0.6160000000000001 4.212,0.9410000000000001 c14.14,4.113 19.395,6.466 31.517,14.114 c2.661,1.6790000000000003 8.389,4.713 10.074,5.337 c0.6040000000000001,0.22400000000000003 2.005,0.7590000000000001 3.113,1.19 c3.447,1.34 12.686,4.162 15.568,4.755 c8.594,1.7670000000000001 9.686,1.9620000000000002 20.513,3.6630000000000003 c7.817,1.229 26.459,2.207 42.032,2.207 c4.601,0 4.579,-0.035 3.587,5.764 c-1.9500000000000002,11.406 -4.279,19.561 -7.7490000000000006,27.128 c-0.5810000000000001,1.2690000000000001 -1.057,2.395 -1.057,2.504 c0,1.4300000000000002 -7.507,12.112 -13.442,19.125 c-15.522,18.344 -20.292,26.581 -21.882,37.787 c-0.6640000000000001,4.682 -1.4340000000000002,9.144 -1.959,11.355 c-0.21500000000000002,0.907 -0.7460000000000001,3.297 -1.179,5.312 c-0.43300000000000005,2.014 -1.008,4.487 -1.278,5.494 c-0.27,1.008 -1.018,3.81 -1.6640000000000001,6.227 c-2.7030000000000003,10.13 -5.912,16.288 -12.024,23.077 c-3.6580000000000004,4.065 -3.693,3.632 0.6500000000000001,8.128 c4.452,4.609 7.944,9.09 10.719,13.755 c5.958,10.016 7.476,14.942 3.047,9.888 c-12.883000000000001,-14.699 -28.609,-27.243 -43.139,-34.412 c-5.738,-2.831 -6.86,-3.148 -6.86,-1.937 c0,0.403 0.131,0.7320000000000001 0.29100000000000004,0.7320000000000001 s0.903,0.802 1.6500000000000001,1.783 c0.983,1.288 1.842,1.963 3.098,2.434 c4.742,1.778 14.015,6.667 16.839,8.88 c1.6740000000000002,1.311 1.173,1.7510000000000001 -7.679,6.75 c-2.568,1.45 -2.253,2.427 1.735,5.39 c4.164,3.094 11.882,11.967 15.848,18.22 c5.154,8.126 7.168,14.068 2.947,8.697000000000001 c-5.038,-6.412 -6.272,-7.822 -10.431000000000001,-11.925 c-6.9510000000000005,-6.859 -11.038,-10.04 -18.803,-14.634 c-4.63,-2.74 -4.492,-2.665 -6.777,-3.638 c-1.007,-0.42800000000000005 -2.656,-1.1600000000000001 -3.6630000000000003,-1.625 c-2.559,-1.182 -9.274000000000001,-3.365 -11.773,-3.827 c-1.83,-0.3380000000000001 -3.795,-1.198 -3.795,-1.6600000000000001 c0,-0.08500000000000002 1.055,-0.908 2.3440000000000003,-1.828 c3.454,-2.465 3.471,-2.8040000000000003 0.278,-5.319 c-2.357,-1.8570000000000002 -11.212,-13.57 -16.703,-22.095 c-9.112,-14.148 -7.71,-29.389 3.5540000000000003,-38.645 c1.6510000000000002,-1.357 10.142,-6.665 10.661,-6.665 c0.1,0 1.306,-0.506 2.68,-1.124 c4.111,-1.851 4.806,-2.164 6.247,-2.818 c7.905,-3.589 12.35,-8.488 14.188,-15.64 c0.6280000000000001,-2.4450000000000003 0.7690000000000001,-9.895 0.22100000000000003,-11.71 c-0.18600000000000003,-0.6190000000000001 -0.6960000000000002,-2.939 -1.1320000000000001,-5.155 s-0.97,-4.9 -1.187,-5.964 c-0.6960000000000002,-3.422 0.6730000000000002,-3.459 7.099,-0.19100000000000003 c7.173,3.6470000000000002 12.001,10.249 13.344,18.243 c0.32500000000000007,1.937 1.276,4.91 1.6430000000000002,5.1370000000000005 c0.274,0.16900000000000004 4.946,-2.125 8.865,-4.352 c17.402,-9.891 31.562,-22.73 37.603,-34.096 c1.473,-2.77 1.245,-3.028 -3.092,-3.505 c-11.324,-1.246 -19.06,-2.305 -24.159,-3.309 c-20.588,-4.052 -35.164,-8.413 -44.061,-13.181 c-0.7420000000000001,-0.3980000000000001 -1.472,-0.7230000000000001 -1.6230000000000002,-0.7230000000000001 c-0.15000000000000002,0 -1.306,-0.6310000000000001 -2.569,-1.403 c-22.73,-13.888 -46.55,-18.703 -68.23,-13.792 c-1.209,0.273 -2.6100000000000003,0.5710000000000001 -3.114,0.6600000000000001 c-6.719,1.195 -16.222,5.164 -30.036,12.546 c-5.556,2.9690000000000003 -8.606,4.232 -16.667,6.9030000000000005 c-6.254,2.073 -13.612,4.068 -19.048,5.166 c-1.6110000000000002,0.32600000000000007 -4.001,0.8190000000000001 -5.311,1.098 c-1.3090000000000002,0.278 -4.689,0.8420000000000001 -7.509,1.2530000000000001 c-2.821,0.41100000000000003 -6.117,0.909 -7.3260000000000005,1.108 c-1.209,0.19800000000000004 -5.577,0.6260000000000001 -9.707,0.9500000000000001 c-11.51,0.903 -11.439,0.8570000000000001 -8.692,5.666 c4.184,7.323 10.494,14.29 20.069,22.155 c3.495,2.871 10.098,7.325 16.173,10.911 c9.032,5.33 9.481,5.426 9.856,2.09 c1.084,-9.64 7.388,-18.058 16.257,-21.71 c5.442,-2.241 6.006,-1.786 4.597,3.718 c-2.249,8.782 -2.891,14.014 -2.268,18.473 c0.7610000000000001,5.433 2.254,8.385 6.248,12.345 c3.215,3.189 3.45,3.335 11.203,6.95 c12.486,5.823 17.359,9.383000000000001 21.593,15.778 c5.008,7.562 5.124,18.202 0.30300000000000005,27.562 c-3.447,6.692 -16.063,23.476 -20.122,26.77 c-3.061,2.484 -2.9050000000000002,3.016 1.81,6.202 c1.316,0.8890000000000001 -0.05200000000000001,1.6480000000000001 -5.415,3.006 c-2.821,0.7140000000000001 -5.799,1.622 -6.618,2.018 s-1.6430000000000002,0.7210000000000001 -1.831,0.7220000000000001 c-0.5850000000000001,0.002 -4.59,1.718 -5.024,2.151 c-0.22500000000000003,0.22600000000000003 -0.6270000000000001,0.41100000000000003 -0.8920000000000001,0.41100000000000003 c-0.8560000000000001,0 -9.246,4.857 -12.969,7.508 c-7.585,5.402 -14.876,12.191 -19.961,18.589 c-1.79,2.253 -3.543,4.39 -3.896,4.75 c-0.35200000000000004,0.36000000000000004 -0.6410000000000001,0.8200000000000001 -0.6410000000000001,1.021 c0,0.202 -0.16500000000000004,0.36600000000000005 -0.36600000000000005,0.36600000000000005 c-0.459,0 -0.47400000000000003,-0.906 -0.028000000000000004,-1.745 c0.18500000000000003,-0.3490000000000001 0.9480000000000001,-1.872 1.693,-3.383 c4.334,-8.781 12.487,-18.661 20.954,-25.392 c3.763,-2.992 3.736,-3.072 -2.198,-6.692 c-4.9190000000000005,-3.001 -5.664,-3.801 -4.428,-4.7540000000000004 c2.349,-1.811 10.272,-6.022 15.327,-8.147 c3.094,-1.299 3.912,-1.827 5.253,-3.384 c2.729,-3.168 1.7680000000000002,-3.446 -3.606,-1.045 c-14.472,6.467 -26.176,15.071 -41.501,30.51 c-6.855,6.906 -7.732,7.168 -4.834,1.444 c3.899,-7.699 8.768,-14.449 14.844,-20.58 c4.691,-4.734 4.63,-4.492 1.9020000000000001,-7.459 c-5.841,-6.356 -9.478,-13.18 -11.77,-22.083 c-3.085,-11.983 -5.029,-21.691 -6.272,-31.319 c-1.342,-10.392 -5.869,-18.516 -20.309,-36.447 c-10.247,-12.725 -14.263,-19.504 -17.663,-29.82 c-3.025,-9.179 -5.7540000000000004,-24.574 -4.566,-25.762 c0.31100000000000005,-0.31100000000000005 4.96,-0.43700000000000006 17.184,-0.464 c13.001,-0.028000000000000004 18.031,-0.17500000000000002 22.435,-0.6530000000000001 c9.553,-1.036 15.082,-1.7400000000000002 17.766000000000002,-2.26 c1.4100000000000001,-0.273 4.13,-0.774 6.044,-1.113 c3.438,-0.6080000000000001 4.5120000000000005,-0.8680000000000001 9.89,-2.3890000000000002 c11.755,-3.325 14,-4.36 29.947,-13.809 c1.4300000000000002,-0.8480000000000001 7.6290000000000004,-3.654 10.163,-4.601 c0.806,-0.30200000000000005 2.125,-0.803 2.93,-1.114 c11.552,-4.459 29.617,-6.768 44.872,-5.735 m-36.974,50.214 c12.09,3.02 17.346,13.411 14.801,29.264 c-1.05,6.54 -1.05,6.54 -3.641,-1.441 c-2.374,-7.309 -7.248,-14.959 -9.965,-15.641 c-1.312,-0.32900000000000007 -1.711,-0.013000000000000003 -2.806,2.223 c-1.295,2.646 -1.491,2.589 -5.854,-1.693 c-4.411,-4.329 -8.647,-7.708 -11.51,-9.181 c-2.725,-1.4020000000000001 -3.03,-2.475 -0.8270000000000001,-2.906 c0.7050000000000001,-0.138 2.518,-0.49000000000000005 4.029,-0.783 c4.374,-0.8490000000000001 12.049,-0.772 15.773,0.15800000000000003 m77.47,1.064 c4.84,1.1280000000000001 5.225,1.6670000000000003 2.186,3.058 c-2.775,1.271 -8.185,5.359 -12.315,9.307 c-4.325,4.135 -4.581,4.197 -6.008,1.4460000000000002 c-1.413,-2.724 -2.248,-2.988 -4.142,-1.31 c-3.6630000000000003,3.243 -6.878,8.906 -9.798,17.256 c-2.01,5.747 -2.87,3.426 -2.8840000000000003,-7.784 c-0.017000000000000005,-13.695 5.132,-20.648 16.824,-22.715 c3.071,-0.543 12.482,-0.11000000000000001 16.137,0.7420000000000001 m-141.8,58.089 c-0.261,0.10900000000000001 -0.171,1.721 0.278,5.008 c0.36500000000000005,2.6660000000000004 0.8200000000000001,6.578 1.012,8.693 c0.19200000000000003,2.116 0.509,4.67 0.7040000000000001,5.678 c0.19500000000000003,1.007 0.6230000000000001,3.7270000000000003 0.9510000000000001,6.044 s0.8420000000000001,5.201 1.141,6.41 c1.399,5.657 2.077,8.159 2.532,9.341 c0.272,0.7050000000000001 0.906,2.354 1.4100000000000001,3.665 c2.004,5.213 5.001,9.47 9.446,13.418 c2.227,1.978 2.7030000000000003,1.987 7.043,0.133 c1.8860000000000001,-0.806 3.688,-1.465 4.004,-1.465 c2.075,0 1.031,-2.085 -2.575,-5.144 c-4.048,-3.432 -7.43,-6.625 -7.43,-7.013 c0,-0.774 10.325,2.065 13.482,3.707 c0.3410000000000001,0.17800000000000002 1.94,0.8470000000000001 3.551,1.488 c1.612,0.6400000000000001 3.636,1.479 4.497,1.8650000000000002 c3.2720000000000002,1.464 6.256,0.5960000000000001 7.98,-2.321 c3.511,-5.944 8.207,-14.861 8.129,-15.439 c-0.11300000000000002,-0.8470000000000001 -0.6110000000000001,-1.111 -3.206,-1.697 c-12.632,-2.8520000000000003 -22.04,-8.808 -29.644,-18.767 l-3.011,-3.943 l-7.574,-3.779 c-4.165,-2.078 -7.9030000000000005,-3.958 -8.306000000000001,-4.177 c-1.151,-0.6270000000000001 -3.8600000000000003,-1.9260000000000002 -3.949,-1.8940000000000001 c-0.04400000000000001,0.016000000000000004 -0.254,0.101 -0.465,0.18900000000000003 m185.92,1.863 c-0.7060000000000001,0.31400000000000006 -1.53,0.7160000000000001 -1.832,0.8940000000000001 s-0.8920000000000001,0.47300000000000003 -1.311,0.6560000000000001 s-4.161,1.9929999999999999 -8.315,4.022 l-7.554,3.689 l-1.544,2.2960000000000003 c-6.4350000000000005,9.57 -23.494,20.005 -32.788,20.057 c-1.9060000000000001,0.011000000000000003 -1.972,1.6520000000000001 -0.18900000000000003,4.6770000000000005 c0.5700000000000001,0.9660000000000001 2.322,4.257 3.895,7.313 c4.824,9.378 5.782,9.675 16.176,5.015 c0.6350000000000001,-0.28400000000000003 1.2810000000000001,-0.517 1.4340000000000002,-0.517 c0.15400000000000003,0 1.5310000000000001,-0.48200000000000004 3.059,-1.071 c10.537,-4.062 13.699,-4.234 9.314,-0.507 c-2.132,1.8130000000000002 -8.493,7.306 -9.042,7.8100000000000005 c-0.37000000000000005,0.3390000000000001 0.35800000000000004,1.827 0.8940000000000001,1.827 c0.20700000000000002,0 2.133,0.7500000000000001 4.281,1.6670000000000003 c4.802,2.051 4.818,2.048 8.648,-1.774 c7.113,-7.098 12.563,-20.441 13.943,-34.143 c0.12200000000000001,-1.208 0.37200000000000005,-2.692 0.557,-3.2960000000000003 c0.18400000000000002,-0.6050000000000001 0.508,-2.748 0.7190000000000001,-4.7620000000000005 c0.21100000000000002,-2.015 0.6160000000000001,-5.229 0.8990000000000001,-7.143 c1.243,-8.392 1.342,-7.859 -1.244,-6.71 m-147.45,12.971 c-0.7330000000000001,2.309 4.118,4.833 9.351,4.866 c4.931,0.030000000000000006 6.032,-0.23 5.402,-1.276 c-1.7360000000000002,-2.8810000000000002 -14.029,-5.872 -14.753,-3.59 m104.77,0.3370000000000001 c-5.829,1.166 -10.989,4.497 -8.147,5.259 c4.943,1.3250000000000002 13.038,-1.099 14.022,-4.198 c0.38700000000000007,-1.22 -2.488,-1.739 -5.875,-1.061 m-77.928,68.094 c16.864,5.595 36.724,6.02 53.572,1.146 c5.005,-1.448 5.813,-1.4180000000000001 13.371,0.49300000000000005 c9.899000000000001,2.505 21.265,7.894 28.843,13.678 c3.375,2.575 3.345,1.747 0.405,10.904 c-1.286,4.01 -4.7170000000000005,11.401 -6.4030000000000005,13.796 c-0.37600000000000006,0.534 -0.6840000000000002,1.069 -0.6840000000000002,1.187 c0,0.923 -6.479,8.55 -8.975,10.567 c-4.231,3.418 -9.521,8.522 -12.659,12.215 c-11.342,13.344 -22.602,19.23 -37.932,19.826 c-16.705,0.6510000000000001 -30.05,-5.788 -42.312,-20.415 c-3.492,-4.165 -8.673,-9.33 -13.179,-13.137 c-8.418,-7.112 -19.715,-30.899 -16.382,-34.494 c3.069,-3.31 16.184,-10.288 24.43,-12.997 c5.001,-1.6430000000000002 6.048,-1.9300000000000002 9.207,-2.52 c5.911,-1.104 6.104,-1.11 8.698,-0.24900000000000003 m-24.194,10.344 c-1.423,0.797 -0.43600000000000005,9.11 1.58,13.312 c5.547,11.558 14.402,17.437 22.157,14.713000000000001 c1.411,-0.49600000000000005 4.597,-1.597 7.08,-2.447 c4.503,-1.542 5.286,-2.098 4.5760000000000005,-3.246 c-0.98,-1.585 -12.026,-10.245 -16.926,-13.27 c-5.312,-3.2800000000000002 -14.176,-8.014 -17.043,-9.104 c-0.457,-0.17400000000000002 -1.07,-0.15600000000000003 -1.424,0.04200000000000001 m96.789,3.467 c-9.302,4.566 -16.69,9.197 -23.851,14.95 c-6.434,5.17 -6.494,5.422 -1.6460000000000001,7.01 c1.6470000000000002,0.539 3.489,1.195 4.094,1.456 c0.6040000000000001,0.261 1.9020000000000001,0.8180000000000001 2.883,1.237 c6.692,2.856 11.7,1.312 17.813,-5.492 c5.465,-6.084 8.058,-11.849 8.058,-17.917 c0,-5.022 0.258,-4.978 -7.351,-1.244 m-48.326,35.516 c-1.31,0.523 -4.442,1.7730000000000001 -6.96,2.777 c-8.767,3.498 -8.942,3.587 -9.094,4.648 c-0.22300000000000003,1.548 4.636,5.147 8.361,6.194 c10.695,3.005 20.445,2.015 27.274,-2.77 c4.444,-3.114 4.02,-3.625 -6.578,-7.946 c-1.8130000000000002,-0.7390000000000001 -4.45,-1.824 -5.861,-2.411 c-3.6900000000000004,-1.536 -4.404,-1.585 -7.142,-0.49200000000000005 " fill="#fbfbfb" id="svg_3"/>
</g><path fill="#631000" stroke="#631001" stroke-opacity="1" stroke-width="2" stroke-dasharray="none" stroke-linejoin="round" stroke-linecap="butt" stroke-dashoffset="" fill-rule="nonzero" opacity="1" marker-start="" marker-mid="" marker-end="" d="M238.3076934814453,168.88461303710938 C238.3076934814453,164.7409666282696 242.78283160299227,161.38461303710938 248.3076934814453,161.38461303710938 C253.83255535989835,161.38461303710938 258.3076934814453,164.7409666282696 258.3076934814453,168.88461303710938 C258.3076934814453,173.02825944594915 253.83255535989835,176.38461303710938 248.3076934814453,176.38461303710938 C242.78283160299227,176.38461303710938 238.3076934814453,173.02825944594915 238.3076934814453,168.88461303710938 z" class="" fill-opacity="1" id="svg_5"/><path fill="#631000" stroke="#631001" stroke-opacity="1" stroke-width="2" stroke-dasharray="none" stroke-linejoin="round" stroke-linecap="butt" stroke-dashoffset="" fill-rule="nonzero" opacity="1" marker-start="" marker-mid="" marker-end="" d="M142,169.5 C142,165.35635359116023 146.47513812154696,162 152,162 C157.52486187845304,162 162,165.35635359116023 162,169.5 C162,173.64364640883977 157.52486187845304,177 152,177 C146.47513812154696,177 142,173.64364640883977 142,169.5 Z" id="svg_4" class="" fill-opacity="1"/></g></svg>