<svg id="svg" version="1.1" xmlns="http://www.w3.org/2000/svg" xmlns:xlink="http://www.w3.org/1999/xlink" width="400" height="366.08187134502924" viewBox="0, 0, 400,366.08187134502924"><g id="svgg"><path id="path0" d="M177.910 47.421 C 165.304 50.155,159.010 52.618,145.029 60.285 C 123.473 72.106,107.096 75.792,70.760 77.000 L 47.368 77.778 47.749 82.456 C 49.199 100.280,55.912 115.152,71.506 135.088 C 85.447 152.911,88.374 158.689,90.677 172.923 C 94.784 198.317,98.551 209.943,105.930 219.995 L 110.135 225.724 104.483 232.073 C 98.966 238.270,92.184 248.527,90.503 253.216 C 90.042 254.503,94.621 250.794,100.680 244.975 C 114.288 231.904,140.945 214.239,143.383 216.677 C 144.663 217.957,139.902 221.567,131.063 226.020 C 119.399 231.896,118.961 232.640,125.125 236.105 C 129.221 238.407,131.554 242.105,128.910 242.105 C 125.456 242.105,102.321 271.132,104.243 273.054 C 104.490 273.301,107.057 270.540,109.948 266.918 C 121.038 253.028,140.868 239.769,156.140 236.033 C 163.621 234.203,163.659 234.162,160.270 231.606 L 157.417 229.455 160.962 226.131 C 191.517 197.483,190.994 172.356,159.525 157.040 C 147.401 151.139,143.743 147.595,141.650 139.720 C 140.444 135.188,140.602 133.260,143.487 117.220 C 144.159 113.481,144.101 113.416,141.086 114.563 C 131.159 118.337,124.667 125.680,123.212 134.780 C 122.320 140.360,121.600 140.306,111.169 133.875 C 94.315 123.484,81.802 111.797,76.452 101.452 C 74.160 97.019,73.924 97.149,86.704 95.845 C 115.407 92.918,132.246 88.354,155.556 77.184 C 192.976 59.252,212.308 59.732,252.047 79.580 C 271.775 89.434,304.536 98.178,322.046 98.264 C 337.143 98.337,313.591 124.805,285.846 138.946 L 281.049 141.391 279.130 134.489 C 276.874 126.372,271.624 119.832,264.974 116.855 C 258.813 114.097,258.498 114.521,260.334 123.081 C 264.567 142.813,261.512 148.734,242.054 158.500 C 218.885 170.129,213.034 182.166,221.717 200.337 C 224.973 207.151,237.018 224.070,240.643 226.922 C 243.894 229.479,243.944 230.598,240.890 232.505 C 237.729 234.480,238.752 235.794,244.126 236.663 C 257.891 238.889,276.266 251.705,293.011 270.760 C 295.911 274.061,295.863 273.819,292.199 266.698 C 289.747 261.931,284.951 255.736,279.250 249.971 L 270.196 240.815 273.782 238.828 C 282.937 233.757,282.679 233.040,269.440 226.724 C 262.716 223.516,257.449 219.354,258.624 218.179 C 261.207 215.597,287.252 233.485,300.848 247.178 C 306.493 252.863,311.111 257.185,311.111 256.781 C 311.111 253.437,301.372 238.470,295.473 232.749 C 290.299 227.730,290.300 227.772,295.255 221.983 C 302.418 213.615,307.543 198.906,311.676 174.854 C 313.876 162.048,317.260 155.084,327.357 142.582 C 345.811 119.731,349.628 113.057,353.920 96.140 C 358.445 78.301,360.299 79.997,335.380 79.183 C 299.594 78.013,278.120 72.940,259.064 61.156 C 237.150 47.604,203.398 41.891,177.910 47.421 M154.094 95.575 C 151.232 96.008,149.366 98.246,151.867 98.246 C 152.411 98.246,156.592 101.383,161.159 105.217 C 168.549 111.422,169.542 111.937,170.190 109.896 C 172.179 103.629,180.783 114.048,184.233 126.901 L 185.175 130.409 186.016 126.901 C 191.417 104.381,178.651 91.854,154.094 95.575 M228.094 97.212 C 220.224 100.352,216.374 107.784,216.374 119.836 C 216.374 124.936,216.868 128.655,217.544 128.655 C 218.187 128.655,218.713 128.062,218.713 127.337 C 218.713 124.974,225.927 111.296,228.310 109.139 C 230.556 107.107,230.706 107.128,232.850 109.777 L 235.068 112.515 241.218 106.980 C 244.601 103.936,248.553 100.904,250.000 100.242 C 257.617 96.761,236.534 93.844,228.094 97.212 M119.298 160.153 C 125.057 163.182,129.636 166.647,132.629 170.240 C 138.561 177.362,149.398 184.297,157.389 186.085 C 165.013 187.791,164.987 187.568,158.832 198.386 C 153.085 208.486,152.704 208.593,140.147 203.635 C 125.283 197.766,124.975 197.798,131.508 204.524 C 134.686 207.796,137.054 210.692,136.772 210.961 C 124.766 222.373,113.892 206.328,108.918 169.863 C 106.478 151.977,105.497 152.895,119.298 160.153 M295.463 158.772 C 295.117 160.541,294.263 166.199,293.564 171.345 C 289.219 203.353,280.332 218.996,269.159 214.301 C 263.145 211.774,263.128 211.904,270.243 205.904 C 278.021 199.346,277.323 199.152,263.606 204.054 C 248.315 209.520,248.928 209.656,243.357 199.564 C 237.426 188.820,237.423 188.877,244.152 187.184 C 253.111 184.931,262.834 179.049,269.207 172.026 C 273.343 167.469,278.004 164.014,284.642 160.585 C 296.010 154.714,296.265 154.671,295.463 158.772 M158.816 171.532 L 161.988 173.684 156.332 174.045 C 150.361 174.425,144.272 171.762,145.728 169.406 C 146.829 167.624,155.017 168.954,158.816 171.532 M256.624 171.187 C 255.713 173.560,250.795 175.439,245.490 175.439 C 242.378 175.439,241.065 175.006,241.592 174.154 C 243.820 170.548,257.938 167.761,256.624 171.187 M158.377 239.632 C 151.164 241.697,139.002 247.500,132.939 251.769 C 126.399 256.374,135.652 278.371,148.946 289.821 C 151.409 291.943,156.750 297.469,160.816 302.102 C 183.456 327.906,214.435 328.368,238.795 303.266 C 243.660 298.253,250.029 291.915,252.950 289.180 C 261.512 281.164,267.716 270.303,270.591 258.297 C 272.783 249.141,238.398 235.904,222.954 239.959 C 211.503 242.965,191.697 242.877,179.532 239.766 C 168.690 236.993,167.618 236.986,158.377 239.632 M157.766 251.982 C 165.557 255.906,184.795 269.549,184.795 271.150 C 184.795 272.380,170.590 277.193,166.962 277.193 C 160.108 277.193,149.204 263.661,147.799 253.414 C 146.885 246.743,147.257 246.690,157.766 251.982 M250.448 262.852 C 247.436 268.757,238.995 277.143,235.827 277.378 C 228.189 277.946,214.482 273.040,216.595 270.494 C 219.234 267.314,233.240 257.910,242.658 252.994 L 252.047 248.093 252.400 253.213 C 252.633 256.587,251.967 259.875,250.448 262.852 M210.819 290.184 C 220.882 294.232,221.286 294.770,216.667 297.987 C 209.349 303.083,200.996 304.136,191.128 301.205 C 178.730 297.524,178.101 294.388,188.889 290.058 C 199.398 285.840,200.031 285.844,210.819 290.184 " stroke="none" fill="#000000" fill-rule="evenodd"></path></g></svg>